<svg width="41" height="35" viewBox="0 0 41 35" fill="none" xmlns="http://www.w3.org/2000/svg">
<g clip-path="url(#clip0_823_531)">
<path d="M7.3763 27.9158C6.26052 25.7776 5.6754 23.4024 5.67029 20.9906C5.67029 12.7609 12.3444 6.08646 20.5745 6.08646C24.7397 6.08646 28.5535 7.74248 31.4138 10.7535L30.1592 11.9077C27.6499 9.24815 24.2376 7.79284 20.5745 7.79284C13.2979 7.79284 7.3763 13.7141 7.3763 20.9906C7.3763 23.1484 7.87844 25.2562 8.88197 27.1129L7.3763 27.9158Z" fill="url(#paint0_linear_823_531)"/>
<path d="M6.13119 30.7765C4.16819 27.8559 3.11133 24.4816 3.11133 20.9566C3.16169 11.3383 10.9633 3.5329 20.6269 3.5329C23.4279 3.53359 26.1879 4.20619 28.6752 5.49423C31.1625 6.78228 33.3046 8.6482 34.9216 10.9354L33.5122 11.9426C32.0592 9.87444 30.13 8.18624 27.8873 7.02057C25.6447 5.85489 23.1544 5.24597 20.6269 5.2452C11.9195 5.2452 4.87289 12.2951 4.87289 21.007C4.87289 24.1794 5.82939 27.2515 7.59095 29.87L6.13119 30.7765Z" fill="url(#paint1_linear_823_531)"/>
<path d="M5.1808 33.8879C2.16205 30.2645 0.501953 25.6845 0.501953 21.0042C0.501953 9.93232 9.50711 0.873463 20.6256 0.873463C28.0207 0.873463 34.7621 4.89946 38.2838 11.3917L36.7744 12.1971C35.1995 9.28768 32.8672 6.85826 30.0243 5.16608C27.1815 3.4739 23.934 2.58195 20.6256 2.58466C10.4632 2.58466 2.21241 10.8381 2.21241 21.0042C2.21241 25.3323 3.72178 29.5094 6.48873 32.7807L5.1808 33.8879Z" fill="url(#paint2_linear_823_531)"/>
<path d="M15.1997 17.3477V18.6528H14.3467V23.2697H12.9414V18.6528H12.2388V17.3477H12.9414V16.2938C13.1424 16.6957 13.9448 16.7959 14.3467 17.3477H15.1997ZM19.8667 23.2697V20.2586C19.8667 19.4056 19.7164 18.4523 18.6624 18.4523C17.6084 18.4523 17.4576 19.4557 17.4576 20.2586V23.2697H16.0527V15.3906H17.458V17.7492C17.9096 17.3477 18.4113 17.1468 18.9636 17.1468C19.8166 17.1468 20.6696 17.6489 21.0214 18.4017C21.2219 18.8538 21.272 19.4051 21.272 19.9073V23.2697H19.8667ZM23.6306 19.9574V23.2692H22.1752V17.3477H23.4797V17.9C23.8315 17.3979 24.1323 17.1473 24.7848 17.1473H24.885V18.5019C23.9819 18.5526 23.6306 19.0542 23.6306 19.9574ZM25.6373 16.6957V15.3906H27.0426V16.6957H25.6373ZM25.6373 23.2692V17.3482H27.0426V23.2701H25.6378L25.6373 23.2692ZM31.258 23.3198H30.1544L27.7453 17.3979H29.3009L30.7564 21.3121L32.1115 17.3979H33.6672L31.258 23.3198ZM37.1795 17.0971C36.8282 17.0971 36.4773 17.1473 36.1761 17.2475C34.9217 17.6991 34.0682 18.9034 34.0682 20.3087C34.0682 21.8644 35.1718 23.1188 36.6272 23.42C37.4301 23.0682 38.0826 22.4663 38.4344 21.5632C38.4344 21.513 38.3838 21.513 38.3838 21.5632C38.0826 21.9646 37.6812 22.1656 37.1795 22.1656C36.4267 22.1656 35.7742 21.6133 35.6238 20.9106H40.2407C40.2908 20.66 40.3409 20.4591 40.3409 20.2085C40.2407 18.5521 38.8855 17.0971 37.1795 17.0971ZM35.5236 19.807C35.7241 19.0041 36.3766 18.4017 37.2296 18.4017C37.5814 18.4017 37.8821 18.5024 38.1332 18.6523C38.4841 18.9034 38.7853 19.3048 38.8855 19.7564H35.5236V19.807Z" fill="black"/>
<path d="M40.0406 21.4125C39.6891 22.6168 38.4345 23.47 37.1803 23.47C37.0296 23.47 36.8792 23.47 36.7285 23.4196C36.8289 23.3696 36.9292 23.3696 37.0296 23.3193C37.6821 23.0182 38.1335 22.5668 38.4345 21.9143C38.5852 21.5629 38.9367 21.4125 39.2877 21.4125H40.0406Z" fill="url(#paint3_linear_823_531)"/>
<path d="M14.3469 15.4411V16.9464C13.9455 16.3943 13.0923 16.2939 12.942 15.8925C12.8916 15.8425 12.8916 15.7922 12.8916 15.6918V14.2365C13.3934 14.0861 14.3469 14.6883 14.3469 15.4411Z" fill="url(#paint4_linear_823_531)"/>
<path d="M28.7992 26.7318V26.381C28.699 26.4812 28.6484 26.5814 28.5486 26.6316C28.3465 26.7344 28.1223 26.7862 27.8956 26.7824C27.1935 26.7824 26.6918 26.2301 26.6918 25.5275C26.6918 24.8253 27.193 24.273 27.9462 24.273C28.2474 24.273 28.6484 24.4239 28.7992 24.6745V24.3236H29.2007V26.6822H28.7992V26.7318ZM27.9462 24.7251C27.4942 24.7251 27.1433 25.1265 27.1433 25.5781C27.1433 26.0296 27.4942 26.4311 27.9462 26.4311C28.3978 26.4311 28.7491 26.0296 28.7491 25.5781C28.7992 25.1265 28.4479 24.7251 27.9462 24.7251ZM30.9067 27.6855C30.5554 27.6855 30.3043 27.5848 30.0537 27.3337C29.9029 27.1839 29.8532 27.1333 29.7525 26.9328H30.2547C30.405 27.1834 30.6561 27.2841 30.9568 27.2841C31.4585 27.2841 31.8098 26.9829 31.8098 26.4812V26.4306C31.7077 26.5581 31.5777 26.6606 31.4298 26.7301C31.282 26.7997 31.1202 26.8346 30.9568 26.832C30.7916 26.8337 30.6278 26.8023 30.4749 26.7398C30.3219 26.6774 30.183 26.585 30.0662 26.4682C29.9494 26.3514 29.8571 26.2125 29.7946 26.0595C29.7321 25.9066 29.7008 25.7428 29.7024 25.5776C29.7024 24.8749 30.3048 24.3236 31.007 24.3236C31.3588 24.3236 31.6094 24.4239 31.86 24.6745V24.3733H32.2118V26.4812C32.2118 27.2335 31.6094 27.6855 30.9067 27.6855ZM30.9067 24.7246C30.4551 24.7246 30.0537 25.126 30.0537 25.5776C30.0537 26.0292 30.405 26.4306 30.8566 26.4306C31.3583 26.4306 31.7096 26.0292 31.7096 25.5275C31.7597 25.0759 31.3583 24.7246 30.9067 24.7246ZM33.2151 25.4778V26.7824H32.7636V24.4239H33.2151V24.6243C33.3655 24.4239 33.5665 24.3737 33.8176 24.3737V24.8253C33.3655 24.8253 33.2151 25.0258 33.2151 25.4778ZM34.1689 24.1227V23.6205H34.6204V24.1217H34.1689V24.1227ZM34.1689 26.7323V24.3737H34.6204V26.7323H34.1689ZM36.2257 26.832C35.5236 26.832 35.0219 26.2802 35.0219 25.5776C35.0219 24.8749 35.5231 24.3231 36.2257 24.3231C36.7279 24.3231 37.2797 24.6745 37.3804 25.1761H36.8783C36.7279 24.8749 36.527 24.7246 36.2257 24.7246C35.7747 24.7246 35.4233 25.126 35.4233 25.5776C35.4233 26.0296 35.7241 26.4306 36.1761 26.4306C36.4768 26.4306 36.7279 26.2301 36.8783 25.979H37.3804C37.3072 26.2276 37.1547 26.4454 36.9463 26.5994C36.7379 26.7534 36.4849 26.8351 36.2257 26.832Z" fill="#48A64C"/>
</g>
<defs>
<linearGradient id="paint0_linear_823_531" x1="-13.0979" y1="20.5585" x2="32.9025" y2="14.3693" gradientUnits="userSpaceOnUse">
<stop stop-color="#9ACB55"/>
<stop offset="1" stop-color="#0D9A49"/>
</linearGradient>
<linearGradient id="paint1_linear_823_531" x1="-13.1381" y1="20.647" x2="33.0001" y2="14.436" gradientUnits="userSpaceOnUse">
<stop stop-color="#9ACB55"/>
<stop offset="1" stop-color="#0D9A49"/>
</linearGradient>
<linearGradient id="paint2_linear_823_531" x1="-13.1016" y1="20.7889" x2="33.0147" y2="14.5816" gradientUnits="userSpaceOnUse">
<stop stop-color="#9ACB55"/>
<stop offset="1" stop-color="#0D9A49"/>
</linearGradient>
<linearGradient id="paint3_linear_823_531" x1="36.7152" y1="22.4501" x2="40.0203" y2="22.4501" gradientUnits="userSpaceOnUse">
<stop stop-color="#9ACB55"/>
<stop offset="1" stop-color="#0D9A49"/>
</linearGradient>
<linearGradient id="paint4_linear_823_531" x1="12.8694" y1="15.5818" x2="14.3427" y2="15.5818" gradientUnits="userSpaceOnUse">
<stop stop-color="#9ACB55"/>
<stop offset="1" stop-color="#0D9A49"/>
</linearGradient>
<clipPath id="clip0_823_531">
<rect width="40" height="33.253" fill="white" transform="translate(0.5 0.873535)"/>
</clipPath>
</defs>
</svg>
